<svg width="42" height="42" viewBox="0 0 42 42" fill="none" xmlns="http://www.w3.org/2000/svg">
<path d="M28.875 0H13.125C5.87738 0 0 5.87738 0 13.125V28.875C0 36.1226 5.87738 42 13.125 42H28.875C36.1226 42 42 36.1226 42 28.875V13.125C42 5.87738 36.1226 0 28.875 0ZM38.0625 28.875C38.0625 33.9412 33.9412 38.0625 28.875 38.0625H13.125C8.05875 38.0625 3.9375 33.9412 3.9375 28.875V13.125C3.9375 8.05875 8.05875 3.9375 13.125 3.9375H28.875C33.9412 3.9375 38.0625 8.05875 38.0625 13.125V28.875Z" fill="url(#paint0_linear_1390_10)"/>
<path d="M20.9993 10.5001C15.2006 10.5001 10.4993 15.2015 10.4993 21.0001C10.4993 26.7987 15.2006 31.5001 20.9993 31.5001C26.7979 31.5001 31.4993 26.7987 31.4993 21.0001C31.4993 15.2015 26.7979 10.5001 20.9993 10.5001ZM20.9993 27.5626C17.382 27.5626 14.4368 24.6174 14.4368 21.0001C14.4368 17.3802 17.382 14.4376 20.9993 14.4376C24.6165 14.4376 27.5618 17.3802 27.5618 21.0001C27.5618 24.6174 24.6165 27.5626 20.9993 27.5626Z" fill="url(#paint1_linear_1390_10)"/>
<path d="M32.2888 11.1115C33.0615 11.1115 33.6879 10.4851 33.6879 9.71242C33.6879 8.9397 33.0615 8.31329 32.2888 8.31329C31.5161 8.31329 30.8896 8.9397 30.8896 9.71242C30.8896 10.4851 31.5161 11.1115 32.2888 11.1115Z" fill="url(#paint2_linear_1390_10)"/>
<defs>
<linearGradient id="paint0_linear_1390_10" x1="6.15116" y1="35.8488" x2="35.8488" y2="6.15116" gradientUnits="userSpaceOnUse">
<stop stop-color="#FFC107"/>
<stop offset="0.507" stop-color="#F44336"/>
<stop offset="0.99" stop-color="#9C27B0"/>
</linearGradient>
<linearGradient id="paint1_linear_1390_10" x1="13.5748" y1="28.4245" x2="28.4237" y2="13.5757" gradientUnits="userSpaceOnUse">
<stop stop-color="#FFC107"/>
<stop offset="0.507" stop-color="#F44336"/>
<stop offset="0.99" stop-color="#9C27B0"/>
</linearGradient>
<linearGradient id="paint2_linear_1390_10" x1="31.2995" y1="10.7017" x2="33.2781" y2="8.72311" gradientUnits="userSpaceOnUse">
<stop stop-color="#FFC107"/>
<stop offset="0.507" stop-color="#F44336"/>
<stop offset="0.99" stop-color="#9C27B0"/>
</linearGradient>
</defs>
</svg>
