<svg width="55" height="56" viewBox="0 0 55 56" fill="none" xmlns="http://www.w3.org/2000/svg">
<path fill-rule="evenodd" clip-rule="evenodd" d="M27.5 2.28857C13.1372 2.28857 1.5 13.903 1.5 28.2225C1.5 42.542 13.1372 54.1564 27.5 54.1564C41.8628 54.1564 53.5 42.542 53.5 28.2225C53.5 13.903 41.8628 2.28857 27.5 2.28857ZM0 28.2225C0 13.0712 12.3122 0.788574 27.5 0.788574C42.6878 0.788574 55 13.0712 55 28.2225C55 43.3738 42.6878 55.6564 27.5 55.6564C12.3122 55.6564 0 43.3738 0 28.2225Z" fill="#C1C1C1"/>
<path fill-rule="evenodd" clip-rule="evenodd" d="M42.4115 21.1596L23.9762 39.5249L13.5885 29.1766L16.4115 26.3428L23.9762 33.8788L39.5885 18.3258L42.4115 21.1596Z" fill="white"/>
</svg>
