<svg width="30" height="30" viewBox="0 0 30 30" fill="none" xmlns="http://www.w3.org/2000/svg">
<path d="M3.57143 0C1.60749 0 0 1.60749 0 3.57143V26.4286C0 28.3925 1.60749 30 3.57143 30H26.4286C28.3925 30 30 28.3925 30 26.4286V3.57143C30 1.60749 28.3925 0 26.4286 0H3.57143ZM3.57143 1.42857H26.4286C27.6203 1.42857 28.5714 2.37965 28.5714 3.57143V26.4286C28.5714 27.6203 27.6203 28.5714 26.4286 28.5714H3.57143C2.37965 28.5714 1.42857 27.6203 1.42857 26.4286V3.57143C1.42857 2.37965 2.37965 1.42857 3.57143 1.42857Z" fill="black"/>
<path fill-rule="evenodd" clip-rule="evenodd" d="M13.1901 5.45639C14.2956 4.47588 15.8271 4 17.563 4C19.1512 4 20.2766 4.1079 20.6857 4.15522C20.9939 4.19087 21.2264 4.4518 21.2264 4.76199V8.19016C21.2264 8.52751 20.9529 8.80097 20.6155 8.80097H18.5945C17.7733 8.80097 17.4541 8.97993 17.3182 9.12499C17.1772 9.27531 17.0904 9.53721 17.0904 10.0547V12.1734H20.6155C20.7927 12.1734 20.961 12.2503 21.0771 12.3841C21.1931 12.5179 21.2453 12.6955 21.2202 12.8709L20.6712 16.703C20.6281 17.0037 20.3705 17.2271 20.0666 17.2271H17.0904V25.9892C17.0904 26.3265 16.8169 26.6 16.4796 26.6H12.0718C11.7345 26.6 11.461 26.3265 11.461 25.9892V17.2271H8.61081C8.27347 17.2271 8 16.9536 8 16.6163V12.7842C8 12.4469 8.27347 12.1734 8.61081 12.1734H11.461V9.67596C11.461 7.88906 12.0745 6.44586 13.1901 5.45639ZM14.0007 6.37034C13.1854 7.09343 12.6826 8.18282 12.6826 9.67596V12.7842C12.6826 13.1215 12.4092 13.395 12.0718 13.395H9.22163V16.0055H12.0718C12.4092 16.0055 12.6826 16.279 12.6826 16.6163V25.3784H15.8688V16.6163C15.8688 16.279 16.1423 16.0055 16.4796 16.0055H19.537L19.911 13.395H16.4796C16.1423 13.395 15.8688 13.1215 15.8688 12.7842V10.0547C15.8688 9.46502 15.9534 8.79467 16.4269 8.28952C16.9053 7.77909 17.6436 7.57935 18.5945 7.57935H20.0047V5.31616C19.4633 5.2713 18.6218 5.22162 17.563 5.22162C16.0403 5.22162 14.8261 5.63829 14.0007 6.37034Z" fill="black"/>
</svg>
