<svg width="30" height="30" viewBox="0 0 30 30" fill="none" xmlns="http://www.w3.org/2000/svg">
<path fill-rule="evenodd" clip-rule="evenodd" d="M8.19995 15C8.19995 11.2441 11.2441 8.19994 15 8.19994C18.7558 8.19994 21.8 11.2441 21.8 15C21.8 18.7558 18.7558 21.8 15 21.8C11.2441 21.8 8.19995 18.7558 8.19995 15ZM15 9.79994C12.1278 9.79994 9.79995 12.1278 9.79995 15C9.79995 17.8721 12.1278 20.2 15 20.2C17.8721 20.2 20.2 17.8721 20.2 15C20.2 12.1278 17.8721 9.79994 15 9.79994ZM25 6.49994C25 7.32794 24.3279 7.99994 23.5 7.99994C22.672 7.99994 22 7.32794 22 6.49994C22 5.67194 22.672 4.99994 23.5 4.99994C24.3279 4.99994 25 5.67194 25 6.49994Z" fill="black"/>
<path d="M3.57143 0C1.60749 0 0 1.60749 0 3.57143V26.4286C0 28.3925 1.60749 30 3.57143 30H26.4286C28.3925 30 30 28.3925 30 26.4286V3.57143C30 1.60749 28.3925 0 26.4286 0H3.57143ZM3.57143 1.42857H26.4286C27.6203 1.42857 28.5714 2.37965 28.5714 3.57143V26.4286C28.5714 27.6203 27.6203 28.5714 26.4286 28.5714H3.57143C2.37965 28.5714 1.42857 27.6203 1.42857 26.4286V3.57143C1.42857 2.37965 2.37965 1.42857 3.57143 1.42857Z" fill="black"/>
</svg>
