<svg width="30" height="30" viewBox="0 0 30 30" fill="none" xmlns="http://www.w3.org/2000/svg">
<path d="M23.7918 6.00134C23.5706 6.01104 23.3553 6.07261 23.1611 6.15036C22.9689 6.2276 21.8624 6.69986 20.2285 7.39845C18.5945 8.09705 16.4705 9.00676 14.365 9.90883C10.154 11.713 6.01601 13.4881 6.01601 13.4881L6.04617 13.4766C6.04617 13.4766 5.79642 13.5601 5.54321 13.7365C5.4166 13.8247 5.28039 13.9386 5.16887 14.1046C5.05734 14.2706 4.97581 14.506 5.00654 14.7548C5.11446 15.629 6.02044 15.877 6.02044 15.877L6.02399 15.8787L10.0672 17.2625C10.1703 17.6064 11.2935 21.3554 11.5406 22.1494C11.6771 22.5883 11.8048 22.8415 11.938 23.0142C12.0047 23.1007 12.0745 23.1676 12.1518 23.2165C12.1825 23.2359 12.2148 23.2505 12.2467 23.2635C12.2474 23.2638 12.2478 23.2632 12.2485 23.2635C12.2524 23.2652 12.2561 23.2654 12.26 23.267L12.2494 23.2644C12.2568 23.2674 12.2641 23.2724 12.2715 23.275C12.286 23.2801 12.2948 23.2799 12.3132 23.2839C12.7763 23.4456 13.1595 23.1455 13.1595 23.1455L13.1755 23.1331L15.6592 20.8294L19.69 23.9723L19.7406 23.9953C20.4461 24.3086 21.0842 24.1338 21.4375 23.8463C21.7909 23.5588 21.9298 23.1881 21.9298 23.1881L21.9449 23.1491L24.9068 7.71159C24.9826 7.36621 24.9934 7.06768 24.9219 6.79791C24.8504 6.52815 24.6768 6.29365 24.4588 6.16367C24.2409 6.03369 24.013 5.99163 23.7918 6.00134ZM23.8157 6.92476C23.9056 6.9206 23.9722 6.93087 23.9931 6.94339C24.0141 6.95591 24.0236 6.95426 24.0437 7.03032C24.0639 7.10638 24.0748 7.26659 24.0198 7.51732L24.018 7.52264L21.0729 22.8705C21.066 22.886 21.0046 23.028 20.8645 23.142C20.7215 23.2583 20.5626 23.3491 20.1406 23.1721L15.7329 19.7348L15.6087 19.6372L15.606 19.6399L14.2878 18.6508L21.6957 9.93544C21.7526 9.86865 21.7889 9.78679 21.8003 9.69978C21.8117 9.61276 21.7976 9.52431 21.7598 9.44511C21.722 9.36592 21.6621 9.29938 21.5872 9.25353C21.5124 9.20768 21.4259 9.18449 21.3382 9.18676C21.2524 9.18899 21.1691 9.21544 21.0978 9.26305L10.3786 16.4092L6.32914 15.0227C6.32914 15.0227 5.92703 14.799 5.90779 14.6431C5.90672 14.6344 5.90197 14.6422 5.92287 14.6111C5.94376 14.58 5.99629 14.5275 6.06214 14.4816C6.19384 14.3899 6.34422 14.3344 6.34422 14.3344L6.3593 14.329L6.37438 14.3228C6.37438 14.3228 10.5126 12.5476 14.7234 10.7436C16.8288 9.84153 18.9524 8.93248 20.5859 8.23406C22.2191 7.53582 23.3991 7.03324 23.499 6.99307C23.6128 6.94752 23.7259 6.92892 23.8157 6.92476ZM18.9032 11.8178L13.2855 18.4273L13.2828 18.4299C13.274 18.4405 13.2657 18.4514 13.258 18.4627C13.249 18.475 13.2408 18.4878 13.2331 18.5009C13.2016 18.5544 13.1813 18.6139 13.1737 18.6756C13.1737 18.6768 13.1737 18.678 13.1737 18.6792L12.4419 21.9702C12.4297 21.9346 12.4212 21.9216 12.4082 21.8797V21.8788C12.1757 21.1319 11.116 17.5963 10.9693 17.1073L18.9032 11.8178ZM13.9197 19.5104L14.9292 20.2679L13.446 21.6428L13.9197 19.5104Z" fill="black"/>
<path d="M3.57143 0C1.60749 0 0 1.60749 0 3.57143V26.4286C0 28.3925 1.60749 30 3.57143 30H26.4286C28.3925 30 30 28.3925 30 26.4286V3.57143C30 1.60749 28.3925 0 26.4286 0H3.57143ZM3.57143 1.42857H26.4286C27.6203 1.42857 28.5714 2.37965 28.5714 3.57143V26.4286C28.5714 27.6203 27.6203 28.5714 26.4286 28.5714H3.57143C2.37965 28.5714 1.42857 27.6203 1.42857 26.4286V3.57143C1.42857 2.37965 2.37965 1.42857 3.57143 1.42857Z" fill="black"/>
</svg>
