<svg width="30" height="30" viewBox="0 0 30 30" fill="none" xmlns="http://www.w3.org/2000/svg">
<path d="M3.57143 0C1.60749 0 0 1.60749 0 3.57143V26.4286C0 28.3925 1.60749 30 3.57143 30H26.4286C28.3925 30 30 28.3925 30 26.4286V3.57143C30 1.60749 28.3925 0 26.4286 0H3.57143ZM3.57143 1.42857H26.4286C27.6203 1.42857 28.5714 2.37965 28.5714 3.57143V26.4286C28.5714 27.6203 27.6203 28.5714 26.4286 28.5714H3.57143C2.37965 28.5714 1.42857 27.6203 1.42857 26.4286V3.57143C1.42857 2.37965 2.37965 1.42857 3.57143 1.42857ZM13.8546 8.56585C13.0993 8.56412 12.4258 8.60633 11.8234 8.90206L11.822 8.90346C11.5283 9.04815 11.3213 9.23192 11.1565 9.45034C11.0741 9.55954 10.9897 9.65757 10.9445 9.90653C10.9219 10.031 10.9092 10.2327 11.0393 10.4506C11.1695 10.6685 11.4313 10.7924 11.5988 10.8147C11.7151 10.8302 11.9777 10.942 12.002 10.9752L12.0033 10.978C12.0033 10.978 12.1052 11.2437 12.1345 11.4802C12.1638 11.7167 12.1624 11.9085 12.1624 11.9085C12.1621 11.9276 12.1626 11.9466 12.1638 11.9657C12.1638 11.9657 12.2052 12.5854 12.1777 13.2254C12.1668 13.4806 12.1338 13.7075 12.0996 13.9104C11.8452 13.6296 11.4704 13.121 10.9291 12.1833C10.3286 11.1425 9.85073 10.2093 9.85073 10.2093C9.82563 10.128 9.73686 9.87502 9.39035 9.62054C9.01154 9.34134 8.64537 9.29967 8.64537 9.29967C8.59944 9.29045 8.55271 9.28578 8.50586 9.28571L5.69057 9.28711C5.69057 9.28711 5.52177 9.27735 5.31948 9.30525C5.11718 9.33315 4.81256 9.35585 4.51869 9.70424L4.5173 9.70564C4.25467 10.0194 4.27055 10.3663 4.30246 10.5622C4.33436 10.7581 4.40569 10.9068 4.40569 10.9068C4.40707 10.9096 4.40846 10.9124 4.40988 10.9152C4.40988 10.9152 6.71265 15.7568 9.31501 18.6077C11.2048 20.6777 13.1445 20.7129 14.7447 20.7129H15.9389C16.2438 20.7129 16.5195 20.701 16.8248 20.5232C17.13 20.3453 17.3354 19.9124 17.3354 19.6122C17.3354 19.2975 17.3824 19.0501 17.44 18.923C17.4806 18.8336 17.5127 18.8014 17.5628 18.7751C17.5734 18.7818 17.5665 18.7779 17.5963 18.7988C17.7152 18.8824 17.9115 19.0731 18.125 19.3108C18.552 19.7864 19.0366 20.4386 19.6875 20.8859C20.1538 21.2066 20.5943 21.349 20.9291 21.4007C21.1389 21.433 21.3019 21.4268 21.4174 21.4174L24.0848 21.4286C24.1006 21.4286 24.1165 21.4282 24.1323 21.4272C24.1323 21.4272 24.5919 21.4325 25.0698 21.1468C25.3087 21.0039 25.5905 20.7329 25.6822 20.3376C25.7739 19.9423 25.6587 19.5327 25.4339 19.1588V19.1574C25.4729 19.2221 25.3985 19.0891 25.3223 18.9648C25.246 18.8406 25.1353 18.6731 24.9763 18.4654C24.6583 18.0499 24.1491 17.4685 23.3259 16.702H23.3245C22.9064 16.313 22.6241 16.0376 22.5084 15.8845C22.3927 15.7314 22.4306 15.8118 22.4386 15.7729C22.4546 15.695 22.9564 14.9712 23.9774 13.6077C24.598 12.7778 25.0336 12.1547 25.3209 11.6364C25.6081 11.1182 25.8153 10.6694 25.671 10.12L25.6696 10.1172C25.6056 9.87603 25.4307 9.65375 25.2511 9.53265C25.0715 9.41154 24.9012 9.36418 24.7489 9.33454C24.4442 9.27527 24.1783 9.28571 23.9314 9.28571C23.4137 9.28571 21.1168 9.30385 20.9277 9.30385C20.7044 9.30385 20.335 9.40545 20.1716 9.50335C19.7608 9.75055 19.6429 10.0753 19.6429 10.0753C19.6354 10.0891 19.6284 10.103 19.6219 10.1172C19.6219 10.1172 19.1481 11.1678 18.5379 12.2056C17.9198 13.2583 17.4632 13.7604 17.1875 13.9927C17.1799 13.9514 17.1812 13.985 17.1763 13.9272C17.1516 13.6332 17.1791 13.227 17.1791 12.8306C17.1791 11.7631 17.2696 11.016 17.221 10.3557C17.1967 10.0256 17.1355 9.6852 16.9182 9.37221C16.701 9.05922 16.3395 8.85588 15.9821 8.76953C15.7677 8.71782 15.5234 8.58331 14.6387 8.57422H14.6373C14.3667 8.57152 14.1064 8.56643 13.8546 8.56585ZM14.6233 10.0028C15.4062 10.0108 15.2112 10.0539 15.6459 10.159C15.7808 10.1916 15.7481 10.1914 15.745 10.1869C15.7418 10.1824 15.7814 10.2561 15.7966 10.4618C15.8269 10.8731 15.7506 11.691 15.7506 12.8306C15.7506 13.1414 15.7131 13.5849 15.752 14.0472C15.7908 14.5094 15.9055 15.1027 16.4579 15.4604C16.7197 15.6301 17.0238 15.6408 17.2838 15.5762C17.5438 15.5115 17.7797 15.3769 18.0273 15.1786C18.5227 14.7819 19.0753 14.1125 19.7698 12.9297C20.419 11.8256 20.8911 10.7743 20.9068 10.7394C20.9099 10.7369 20.913 10.7352 20.9166 10.7324C20.9255 10.7325 20.9163 10.7324 20.9277 10.7324C21.1944 10.7324 23.449 10.7143 23.9314 10.7143C24.044 10.7143 24.0849 10.7211 24.1741 10.7241C24.1499 10.805 24.1768 10.7534 24.0709 10.9445C23.8487 11.3453 23.4392 11.941 22.8334 12.7511C21.838 14.0805 21.221 14.6014 21.0393 15.4841C20.9485 15.9254 21.1187 16.4146 21.3686 16.7453C21.6184 17.0759 21.9338 17.3591 22.3521 17.7483C23.1268 18.4697 23.5813 18.9938 23.8421 19.3345C23.9725 19.5049 24.0547 19.628 24.1057 19.7112C24.1568 19.7944 24.1442 19.7857 24.2104 19.8954C24.2539 19.9684 24.2379 19.9238 24.2453 19.9456C24.1596 19.9697 24.0559 19.9988 24.0499 20L21.423 19.9888C21.3757 19.9888 21.3285 19.9935 21.2821 20.0028C21.2821 20.0028 21.2887 20.0105 21.1482 19.9888C21.0076 19.9672 20.7841 19.9064 20.4967 19.7084C20.1497 19.47 19.6639 18.8866 19.1881 18.3566C18.9501 18.0916 18.7128 17.8371 18.418 17.6297C18.1231 17.4224 17.6819 17.2274 17.2056 17.3772C16.7112 17.5325 16.3263 17.9184 16.1384 18.3329C15.9985 18.6414 15.9872 18.9637 15.9654 19.2843C15.9417 19.2861 15.969 19.2843 15.9389 19.2843H14.7447C13.1221 19.2843 11.9699 19.3965 10.3697 17.6437C8.2172 15.2856 6.24508 11.3622 5.92355 10.7157L8.40123 10.7143C8.44478 10.731 8.53798 10.766 8.54353 10.7701L8.54632 10.7729C8.45575 10.7067 8.5505 10.7994 8.5505 10.7994C8.55925 10.8208 8.56902 10.8417 8.5798 10.8622C8.5798 10.8622 9.07075 11.8213 9.69169 12.8976C10.3008 13.9527 10.7446 14.6119 11.1733 15.0474C11.3876 15.2652 11.604 15.4399 11.8931 15.5385C12.1823 15.6371 12.5557 15.601 12.8069 15.4632C13.3201 15.1823 13.389 14.7679 13.4724 14.4057C13.5558 14.0429 13.5891 13.6565 13.6049 13.2868C13.6357 12.5693 13.5922 11.9482 13.5896 11.9099C13.5897 11.8964 13.593 11.6375 13.5519 11.3058C13.5098 10.9662 13.4629 10.551 13.1557 10.1325L13.1543 10.1311C13.1522 10.1282 13.1495 10.1284 13.1473 10.1256C13.5536 10.0673 13.9012 9.99557 14.6233 10.0028ZM20.9249 10.7031L20.9152 10.7254C20.9152 10.7254 20.9142 10.7244 20.9124 10.7254C20.9154 10.7197 20.9249 10.7031 20.9249 10.7031Z" fill="black"/>
</svg>
