<svg width="30" height="30" viewBox="0 0 30 30" fill="none" xmlns="http://www.w3.org/2000/svg">
<path fill-rule="evenodd" clip-rule="evenodd" d="M15.6905 5.23671C14.0633 5.23688 12.4662 5.67548 11.0672 6.5064C9.66808 7.33733 8.51874 8.52987 7.73999 9.95864C6.96124 11.3874 6.58184 12.9996 6.64169 14.6257C6.70154 16.2518 7.19843 17.8318 8.08011 19.1994L6.71012 22.2302C6.65458 22.3507 6.63037 22.4833 6.63973 22.6157C6.64908 22.7481 6.6917 22.876 6.76364 22.9875C6.83557 23.099 6.93449 23.1906 7.05123 23.2537C7.16797 23.3168 7.29875 23.3494 7.43146 23.3485C7.5014 23.3491 7.57107 23.3397 7.63836 23.3206L11.4296 22.2805C12.6437 22.9249 13.9886 23.2845 15.3624 23.3319C16.7361 23.3794 18.1026 23.1135 19.3583 22.5545C20.614 21.9954 21.726 21.1578 22.61 20.1052C23.4939 19.0526 24.1267 17.8126 24.4603 16.4792C24.7939 15.1457 24.8195 13.7538 24.5353 12.409C24.2511 11.0641 23.6645 9.80162 22.8199 8.71715C21.9753 7.63268 20.895 6.75469 19.6607 6.14973C18.4265 5.54477 17.0707 5.22872 15.6961 5.22552L15.6905 5.23671ZM15.6905 21.7661C14.3681 21.7661 13.0694 21.4149 11.9273 20.7484C11.8055 20.6788 11.6677 20.6422 11.5275 20.6421C11.4566 20.6418 11.386 20.6512 11.3178 20.6701L8.84339 21.3495L9.70453 19.4483C9.76194 19.3216 9.78493 19.182 9.77118 19.0435C9.75744 18.9051 9.70745 18.7728 9.62624 18.6598C8.64607 17.2987 8.15229 15.6474 8.22435 13.9716C8.2964 12.2958 8.93011 10.693 10.0235 9.42097C11.1169 8.14898 12.6064 7.2818 14.2524 6.95894C15.8983 6.63608 17.6051 6.87632 19.098 7.641C20.5909 8.40569 21.7831 9.65035 22.4829 11.1747C23.1826 12.6991 23.3493 14.4146 22.9559 16.0452C22.5626 17.6758 21.6321 19.1266 20.3143 20.1643C18.9965 21.2019 17.3679 21.7661 15.6905 21.7661V21.7661Z" fill="black"/>
<path fill-rule="evenodd" clip-rule="evenodd" d="M19.1715 15.657C18.7941 15.4306 18.2992 15.1761 17.8518 15.3607C17.5107 15.5005 17.2927 16.0373 17.069 16.3113C17.0214 16.3756 16.952 16.4204 16.8739 16.4373C16.7957 16.4543 16.714 16.4423 16.644 16.4035C15.3895 15.9088 14.3385 15.0055 13.6608 13.8397C13.6024 13.767 13.5739 13.6747 13.5811 13.5817C13.5884 13.4887 13.6309 13.402 13.6999 13.3392C13.9607 13.1001 14.1536 12.7962 14.2591 12.4585C14.2788 12.0961 14.1955 11.7355 14.0187 11.4185C13.8397 11.0326 13.6384 10.479 13.2498 10.261C13.0636 10.1745 12.8561 10.1443 12.653 10.1741C12.4498 10.2039 12.2598 10.2924 12.1063 10.4287C11.843 10.6556 11.634 10.9387 11.4946 11.2571C11.3553 11.5755 11.2891 11.9211 11.3011 12.2684C11.2983 12.4677 11.319 12.6666 11.3626 12.8611C11.4841 13.317 11.6725 13.7523 11.9217 14.1528C12.1011 14.459 12.2962 14.7558 12.5061 15.0419C13.1921 15.9825 14.0531 16.7818 15.042 17.3961C15.5384 17.7075 16.0695 17.9599 16.6244 18.1482C17.2423 18.3523 17.7959 18.5676 18.4641 18.4278C18.8236 18.3728 19.1643 18.231 19.4566 18.0147C19.7489 17.7984 19.984 17.5141 20.1417 17.1864C20.2311 16.9876 20.2584 16.7663 20.22 16.5517C20.1305 16.1184 19.5266 15.8583 19.1715 15.657Z" fill="black"/>
<path d="M3.57143 0C1.60749 0 0 1.60749 0 3.57143V26.4286C0 28.3925 1.60749 30 3.57143 30H26.4286C28.3925 30 30 28.3925 30 26.4286V3.57143C30 1.60749 28.3925 0 26.4286 0H3.57143ZM3.57143 1.42857H26.4286C27.6203 1.42857 28.5714 2.37965 28.5714 3.57143V26.4286C28.5714 27.6203 27.6203 28.5714 26.4286 28.5714H3.57143C2.37965 28.5714 1.42857 27.6203 1.42857 26.4286V3.57143C1.42857 2.37965 2.37965 1.42857 3.57143 1.42857Z" fill="black"/>
</svg>
